<mxfile host="app.diagrams.net" modified="2023-03-16T02:23:13.380Z" agent="5.0 (Windows NT 10.0; Win64; x64) AppleWebKit/537.36 (KHTML, like Gecko) Chrome/111.0.0.0 Safari/537.36" etag="k3NWOqonYAyQNMIicPfP" version="21.0.6" type="github">
  <diagram name="Page-1" id="b5b7bab2-c9e2-2cf4-8b2a-24fd1a2a6d21">
    <mxGraphModel dx="3581" dy="638" grid="1" gridSize="10" guides="1" tooltips="1" connect="1" arrows="1" fold="1" page="1" pageScale="1" pageWidth="827" pageHeight="1169" background="none" math="0" shadow="0">
      <root>
        <mxCell id="0" />
        <mxCell id="1" parent="0" />
        <mxCell id="6e0c8c40b5770093-72" value="" style="shape=folder;fontStyle=1;spacingTop=10;tabWidth=194;tabHeight=22;tabPosition=left;html=1;rounded=0;shadow=0;comic=0;labelBackgroundColor=none;strokeWidth=1;fillColor=none;fontFamily=Verdana;fontSize=10;align=center;" parent="1" vertex="1">
          <mxGeometry x="-1680" y="89.5" width="3330" height="940" as="geometry" />
        </mxCell>
        <mxCell id="6e0c8c40b5770093-7" value="" style="group;labelBackgroundColor=none;" parent="1" vertex="1" connectable="0">
          <mxGeometry x="765.5" y="174.5" width="130" height="70" as="geometry" />
        </mxCell>
        <mxCell id="6e0c8c40b5770093-8" value="Login" style="shape=folder;fontStyle=1;spacingTop=10;tabWidth=50;tabHeight=17;tabPosition=left;html=1;rounded=0;shadow=0;comic=0;labelBackgroundColor=none;strokeWidth=1;fontFamily=Verdana;fontSize=10;align=center;" parent="6e0c8c40b5770093-7" vertex="1">
          <mxGeometry width="130" height="70" as="geometry" />
        </mxCell>
        <mxCell id="6e0c8c40b5770093-9" value="" style="triangle;whiteSpace=wrap;html=1;rounded=0;shadow=0;comic=0;labelBackgroundColor=none;strokeWidth=1;fontFamily=Verdana;fontSize=10;align=center;rotation=-90;" parent="6e0c8c40b5770093-7" vertex="1">
          <mxGeometry x="100" y="25" width="15" height="20" as="geometry" />
        </mxCell>
        <mxCell id="6e0c8c40b5770093-19" value="" style="group;labelBackgroundColor=none;" parent="1" vertex="1" connectable="0">
          <mxGeometry x="685.5" y="298.5" width="280" height="141.5" as="geometry" />
        </mxCell>
        <mxCell id="6e0c8c40b5770093-20" value="" style="shape=folder;fontStyle=1;spacingTop=10;tabWidth=123;tabHeight=24;tabPosition=left;html=1;rounded=0;shadow=0;comic=0;labelBackgroundColor=none;strokeWidth=1;fontFamily=Verdana;fontSize=10;align=center;" parent="6e0c8c40b5770093-19" vertex="1">
          <mxGeometry x="-280" width="560" height="130" as="geometry" />
        </mxCell>
        <mxCell id="6e0c8c40b5770093-23" value="Index Masyarakat&lt;br&gt;- List Pengaduan&lt;br&gt;- Buat Pengaduan" style="shape=folder;fontStyle=1;spacingTop=10;tabWidth=50;tabHeight=17;tabPosition=left;html=1;rounded=0;shadow=0;comic=0;labelBackgroundColor=none;strokeWidth=1;fontFamily=Verdana;fontSize=10;align=center;" parent="6e0c8c40b5770093-19" vertex="1">
          <mxGeometry x="130" y="40" width="130" height="70" as="geometry" />
        </mxCell>
        <mxCell id="-p2scP-3zSG3VPXRDZF1-8" value="Index Admin&lt;br&gt;- Halaman Admin" style="shape=folder;fontStyle=1;spacingTop=10;tabWidth=60;tabHeight=22;tabPosition=left;html=1;rounded=0;shadow=0;comic=0;labelBackgroundColor=none;strokeWidth=1;fontFamily=Verdana;fontSize=10;align=center;" vertex="1" parent="6e0c8c40b5770093-19">
          <mxGeometry x="-65.5" y="40" width="112" height="70" as="geometry" />
        </mxCell>
        <mxCell id="6e0c8c40b5770093-30" value="" style="group;labelBackgroundColor=none;" parent="1" vertex="1" connectable="0">
          <mxGeometry x="1060" y="294.5" width="230" height="480" as="geometry" />
        </mxCell>
        <mxCell id="6e0c8c40b5770093-24" value="" style="group;labelBackgroundColor=none;" parent="6e0c8c40b5770093-30" vertex="1" connectable="0">
          <mxGeometry width="230" height="480" as="geometry" />
        </mxCell>
        <mxCell id="6e0c8c40b5770093-25" value="" style="shape=folder;fontStyle=1;spacingTop=10;tabWidth=123;tabHeight=24;tabPosition=left;html=1;rounded=0;shadow=0;comic=0;labelBackgroundColor=none;strokeWidth=1;fontFamily=Verdana;fontSize=10;align=center;" parent="6e0c8c40b5770093-24" vertex="1">
          <mxGeometry width="230" height="480" as="geometry" />
        </mxCell>
        <mxCell id="6e0c8c40b5770093-29" value="" style="triangle;whiteSpace=wrap;html=1;rounded=0;shadow=0;comic=0;labelBackgroundColor=none;strokeWidth=1;fontFamily=Verdana;fontSize=10;align=center;rotation=-90;" parent="6e0c8c40b5770093-24" vertex="1">
          <mxGeometry x="100" y="2" width="15" height="20" as="geometry" />
        </mxCell>
        <mxCell id="6e0c8c40b5770093-27" value="Buat Pengaduan" style="shape=folder;fontStyle=1;spacingTop=10;tabWidth=50;tabHeight=17;tabPosition=left;html=1;rounded=0;shadow=0;comic=0;labelBackgroundColor=none;strokeWidth=1;fontFamily=Verdana;fontSize=10;align=center;" parent="6e0c8c40b5770093-24" vertex="1">
          <mxGeometry x="59" y="79" width="112" height="70" as="geometry" />
        </mxCell>
        <mxCell id="-p2scP-3zSG3VPXRDZF1-38" style="edgeStyle=orthogonalEdgeStyle;rounded=0;orthogonalLoop=1;jettySize=auto;html=1;exitX=0.5;exitY=1;exitDx=0;exitDy=0;exitPerimeter=0;entryX=0;entryY=0;entryDx=25;entryDy=0;entryPerimeter=0;dashed=1;endArrow=open;endFill=0;" edge="1" parent="6e0c8c40b5770093-24" source="6e0c8c40b5770093-31" target="6e0c8c40b5770093-28">
          <mxGeometry relative="1" as="geometry" />
        </mxCell>
        <mxCell id="6e0c8c40b5770093-31" value="List Pengaduan" style="shape=folder;fontStyle=1;spacingTop=10;tabWidth=50;tabHeight=17;tabPosition=left;html=1;rounded=0;shadow=0;comic=0;labelBackgroundColor=none;strokeWidth=1;fontFamily=Verdana;fontSize=10;align=center;" parent="6e0c8c40b5770093-24" vertex="1">
          <mxGeometry x="59" y="205" width="112" height="70" as="geometry" />
        </mxCell>
        <mxCell id="6e0c8c40b5770093-28" value="List Tanggapan" style="shape=folder;fontStyle=1;spacingTop=10;tabWidth=50;tabHeight=17;tabPosition=left;html=1;rounded=0;shadow=0;comic=0;labelBackgroundColor=none;strokeWidth=1;fontFamily=Verdana;fontSize=10;align=center;" parent="6e0c8c40b5770093-24" vertex="1">
          <mxGeometry x="59" y="340" width="112" height="70" as="geometry" />
        </mxCell>
        <mxCell id="6e0c8c40b5770093-33" value="" style="shape=folder;fontStyle=1;spacingTop=10;tabWidth=123;tabHeight=24;tabPosition=left;html=1;rounded=0;shadow=0;comic=0;labelBackgroundColor=none;strokeWidth=1;fontFamily=Verdana;fontSize=10;align=center;" parent="1" vertex="1">
          <mxGeometry x="372" y="472" width="640" height="555.5" as="geometry" />
        </mxCell>
        <mxCell id="6e0c8c40b5770093-64" style="edgeStyle=elbowEdgeStyle;rounded=0;html=1;dashed=1;labelBackgroundColor=none;startFill=0;endArrow=open;endFill=0;endSize=10;fontFamily=Verdana;fontSize=10;fontColor=default;" parent="1" source="6e0c8c40b5770093-42" target="6e0c8c40b5770093-44" edge="1">
          <mxGeometry relative="1" as="geometry" />
        </mxCell>
        <mxCell id="6e0c8c40b5770093-65" style="edgeStyle=none;rounded=0;html=1;dashed=1;labelBackgroundColor=none;startFill=0;endArrow=open;endFill=0;endSize=10;fontFamily=Verdana;fontSize=10;entryX=-0.003;entryY=0.411;entryPerimeter=0;fontColor=default;" parent="1" source="6e0c8c40b5770093-42" target="6e0c8c40b5770093-45" edge="1">
          <mxGeometry relative="1" as="geometry" />
        </mxCell>
        <mxCell id="-p2scP-3zSG3VPXRDZF1-26" style="edgeStyle=orthogonalEdgeStyle;rounded=0;orthogonalLoop=1;jettySize=auto;html=1;exitX=0;exitY=0;exitDx=0;exitDy=70;exitPerimeter=0;entryX=0;entryY=0;entryDx=25;entryDy=0;entryPerimeter=0;dashed=1;endArrow=open;endFill=0;" edge="1" parent="1" source="6e0c8c40b5770093-42" target="6e0c8c40b5770093-43">
          <mxGeometry relative="1" as="geometry" />
        </mxCell>
        <mxCell id="-p2scP-3zSG3VPXRDZF1-30" style="edgeStyle=orthogonalEdgeStyle;rounded=0;orthogonalLoop=1;jettySize=auto;html=1;exitX=0;exitY=0;exitDx=0;exitDy=17;exitPerimeter=0;dashed=1;endArrow=open;endFill=0;" edge="1" parent="1" source="6e0c8c40b5770093-42" target="-p2scP-3zSG3VPXRDZF1-25">
          <mxGeometry relative="1" as="geometry">
            <Array as="points">
              <mxPoint x="460" y="542" />
            </Array>
          </mxGeometry>
        </mxCell>
        <mxCell id="6e0c8c40b5770093-42" value="Dashboard&lt;br&gt;" style="shape=folder;fontStyle=1;spacingTop=10;tabWidth=50;tabHeight=17;tabPosition=left;html=1;rounded=0;shadow=0;comic=0;labelBackgroundColor=none;strokeWidth=1;fontFamily=Verdana;fontSize=10;align=center;" parent="1" vertex="1">
          <mxGeometry x="647.5" y="524.5" width="112" height="70" as="geometry" />
        </mxCell>
        <mxCell id="6e0c8c40b5770093-43" value="&lt;font style=&quot;font-size: 8px;&quot;&gt;Halaman List Tanggapan&lt;/font&gt;" style="shape=folder;fontStyle=1;spacingTop=10;tabWidth=50;tabHeight=17;tabPosition=left;html=1;rounded=0;shadow=0;comic=0;labelBackgroundColor=none;strokeWidth=1;fontFamily=Verdana;fontSize=10;align=center;" parent="1" vertex="1">
          <mxGeometry x="573.5" y="624.5" width="112" height="70" as="geometry" />
        </mxCell>
        <mxCell id="-p2scP-3zSG3VPXRDZF1-54" style="edgeStyle=orthogonalEdgeStyle;rounded=0;orthogonalLoop=1;jettySize=auto;html=1;exitX=0.5;exitY=1;exitDx=0;exitDy=0;exitPerimeter=0;entryX=0.215;entryY=0;entryDx=0;entryDy=0;entryPerimeter=0;dashed=1;endArrow=open;endFill=0;" edge="1" parent="1" source="6e0c8c40b5770093-44" target="-p2scP-3zSG3VPXRDZF1-53">
          <mxGeometry relative="1" as="geometry" />
        </mxCell>
        <mxCell id="-p2scP-3zSG3VPXRDZF1-57" style="edgeStyle=orthogonalEdgeStyle;rounded=0;orthogonalLoop=1;jettySize=auto;html=1;exitX=0;exitY=0;exitDx=0;exitDy=70;exitPerimeter=0;entryX=0;entryY=0;entryDx=25;entryDy=0;entryPerimeter=0;dashed=1;dashPattern=8 8;endArrow=openThin;endFill=0;" edge="1" parent="1" source="6e0c8c40b5770093-44" target="-p2scP-3zSG3VPXRDZF1-56">
          <mxGeometry relative="1" as="geometry" />
        </mxCell>
        <mxCell id="-p2scP-3zSG3VPXRDZF1-76" style="edgeStyle=orthogonalEdgeStyle;rounded=0;orthogonalLoop=1;jettySize=auto;html=1;exitX=0.25;exitY=1;exitDx=0;exitDy=0;exitPerimeter=0;entryX=0;entryY=0;entryDx=25;entryDy=0;entryPerimeter=0;dashed=1;endArrow=open;endFill=0;" edge="1" parent="1" source="6e0c8c40b5770093-44" target="-p2scP-3zSG3VPXRDZF1-74">
          <mxGeometry relative="1" as="geometry">
            <mxPoint x="734" y="740" as="targetPoint" />
          </mxGeometry>
        </mxCell>
        <mxCell id="6e0c8c40b5770093-44" value="&lt;font style=&quot;font-size: 8px;&quot;&gt;Halaman list Pengaduan&lt;/font&gt;" style="shape=folder;fontStyle=1;spacingTop=10;tabWidth=50;tabHeight=17;tabPosition=left;html=1;rounded=0;shadow=0;comic=0;labelBackgroundColor=none;strokeWidth=1;fontFamily=Verdana;fontSize=10;align=center;" parent="1" vertex="1">
          <mxGeometry x="706.5" y="624.5" width="112" height="70" as="geometry" />
        </mxCell>
        <mxCell id="6e0c8c40b5770093-45" value="Kalender" style="shape=folder;fontStyle=1;spacingTop=10;tabWidth=50;tabHeight=17;tabPosition=left;html=1;rounded=0;shadow=0;comic=0;labelBackgroundColor=none;strokeWidth=1;fontFamily=Verdana;fontSize=10;align=center;" parent="1" vertex="1">
          <mxGeometry x="843" y="624.5" width="112" height="70" as="geometry" />
        </mxCell>
        <mxCell id="6e0c8c40b5770093-59" style="rounded=0;html=1;dashed=1;labelBackgroundColor=none;startFill=0;endArrow=open;endFill=0;endSize=10;fontFamily=Verdana;fontSize=10;entryX=0.592;entryY=0.2;entryPerimeter=0;edgeStyle=elbowEdgeStyle;fontColor=default;" parent="1" edge="1">
          <mxGeometry relative="1" as="geometry">
            <mxPoint x="843.3275862068965" y="244.5" as="sourcePoint" />
            <mxPoint x="843.3275862068965" y="320.84482758620686" as="targetPoint" />
          </mxGeometry>
        </mxCell>
        <mxCell id="-p2scP-3zSG3VPXRDZF1-2" value="Hal Admin" style="text;html=1;strokeColor=none;fillColor=none;align=center;verticalAlign=middle;whiteSpace=wrap;rounded=0;" vertex="1" parent="1">
          <mxGeometry x="372" y="471.5" width="100" height="30" as="geometry" />
        </mxCell>
        <mxCell id="-p2scP-3zSG3VPXRDZF1-7" value="" style="edgeStyle=orthogonalEdgeStyle;rounded=0;orthogonalLoop=1;jettySize=auto;html=1;dashed=1;endArrow=open;endFill=0;" edge="1" parent="1" source="-p2scP-3zSG3VPXRDZF1-6" target="6e0c8c40b5770093-8">
          <mxGeometry relative="1" as="geometry" />
        </mxCell>
        <mxCell id="-p2scP-3zSG3VPXRDZF1-6" value="Landing Page" style="shape=folder;fontStyle=1;spacingTop=10;tabWidth=50;tabHeight=17;tabPosition=left;html=1;rounded=0;shadow=0;comic=0;labelBackgroundColor=none;strokeWidth=1;fontFamily=Verdana;fontSize=10;align=center;" vertex="1" parent="1">
          <mxGeometry x="562.5" y="174.5" width="130" height="70" as="geometry" />
        </mxCell>
        <mxCell id="-p2scP-3zSG3VPXRDZF1-72" style="edgeStyle=orthogonalEdgeStyle;rounded=0;orthogonalLoop=1;jettySize=auto;html=1;exitX=0;exitY=0;exitDx=0;exitDy=30.25;exitPerimeter=0;entryX=0.055;entryY=0;entryDx=0;entryDy=0;entryPerimeter=0;" edge="1" parent="1" source="6e0c8c40b5770093-22" target="-p2scP-3zSG3VPXRDZF1-71">
          <mxGeometry relative="1" as="geometry" />
        </mxCell>
        <mxCell id="6e0c8c40b5770093-22" value="Index Petugas&lt;br&gt;- Halaman Petugas" style="shape=folder;fontStyle=1;spacingTop=10;tabWidth=50;tabHeight=17;tabPosition=left;html=1;rounded=0;shadow=0;comic=0;labelBackgroundColor=none;strokeWidth=1;fontFamily=Verdana;fontSize=10;align=center;" parent="1" vertex="1">
          <mxGeometry x="460" y="338.5" width="112" height="70" as="geometry" />
        </mxCell>
        <mxCell id="-p2scP-3zSG3VPXRDZF1-24" style="edgeStyle=orthogonalEdgeStyle;rounded=0;orthogonalLoop=1;jettySize=auto;html=1;exitX=0.5;exitY=1;exitDx=0;exitDy=0;exitPerimeter=0;entryX=0.75;entryY=0;entryDx=0;entryDy=0;" edge="1" parent="1" source="-p2scP-3zSG3VPXRDZF1-8" target="-p2scP-3zSG3VPXRDZF1-2">
          <mxGeometry relative="1" as="geometry" />
        </mxCell>
        <mxCell id="-p2scP-3zSG3VPXRDZF1-41" value="" style="edgeStyle=orthogonalEdgeStyle;rounded=0;orthogonalLoop=1;jettySize=auto;html=1;endArrow=open;endFill=0;dashed=1;" edge="1" parent="1" source="-p2scP-3zSG3VPXRDZF1-25" target="-p2scP-3zSG3VPXRDZF1-40">
          <mxGeometry relative="1" as="geometry">
            <Array as="points">
              <mxPoint x="480" y="735" />
              <mxPoint x="430" y="735" />
            </Array>
          </mxGeometry>
        </mxCell>
        <mxCell id="-p2scP-3zSG3VPXRDZF1-25" value="Halaman List Akun" style="shape=folder;fontStyle=1;spacingTop=10;tabWidth=50;tabHeight=17;tabPosition=left;html=1;rounded=0;shadow=0;comic=0;labelBackgroundColor=none;strokeWidth=1;fontFamily=Verdana;fontSize=10;align=center;" vertex="1" parent="1">
          <mxGeometry x="440" y="624.5" width="112" height="70" as="geometry" />
        </mxCell>
        <mxCell id="-p2scP-3zSG3VPXRDZF1-32" style="edgeStyle=orthogonalEdgeStyle;rounded=0;orthogonalLoop=1;jettySize=auto;html=1;dashed=1;" edge="1" parent="1" source="6e0c8c40b5770093-27" target="6e0c8c40b5770093-23">
          <mxGeometry relative="1" as="geometry">
            <Array as="points">
              <mxPoint x="1040" y="409" />
              <mxPoint x="1040" y="374" />
            </Array>
          </mxGeometry>
        </mxCell>
        <mxCell id="-p2scP-3zSG3VPXRDZF1-34" style="edgeStyle=orthogonalEdgeStyle;rounded=0;orthogonalLoop=1;jettySize=auto;html=1;exitX=0;exitY=0;exitDx=130;exitDy=56.75;exitPerimeter=0;entryX=0;entryY=0;entryDx=0;entryDy=43.5;entryPerimeter=0;dashed=1;endArrow=open;endFill=0;" edge="1" parent="1" source="6e0c8c40b5770093-23" target="6e0c8c40b5770093-31">
          <mxGeometry relative="1" as="geometry" />
        </mxCell>
        <mxCell id="-p2scP-3zSG3VPXRDZF1-36" style="edgeStyle=orthogonalEdgeStyle;rounded=0;orthogonalLoop=1;jettySize=auto;html=1;exitX=0;exitY=0;exitDx=90;exitDy=17;exitPerimeter=0;entryX=0;entryY=0;entryDx=25;entryDy=0;entryPerimeter=0;dashed=1;endArrow=open;endFill=0;" edge="1" parent="1" source="6e0c8c40b5770093-23" target="6e0c8c40b5770093-27">
          <mxGeometry relative="1" as="geometry" />
        </mxCell>
        <mxCell id="-p2scP-3zSG3VPXRDZF1-60" style="edgeStyle=orthogonalEdgeStyle;rounded=0;orthogonalLoop=1;jettySize=auto;html=1;exitX=0;exitY=0;exitDx=112.00000000000001;exitDy=43.5;exitPerimeter=0;entryX=0;entryY=0;entryDx=112.00000000000001;entryDy=70;entryPerimeter=0;dashed=1;endArrow=open;endFill=0;" edge="1" parent="1" source="-p2scP-3zSG3VPXRDZF1-40" target="-p2scP-3zSG3VPXRDZF1-25">
          <mxGeometry relative="1" as="geometry" />
        </mxCell>
        <mxCell id="-p2scP-3zSG3VPXRDZF1-40" value="Buat Akun" style="shape=folder;fontStyle=1;spacingTop=10;tabWidth=50;tabHeight=17;tabPosition=left;html=1;rounded=0;shadow=0;comic=0;labelBackgroundColor=none;strokeWidth=1;fontFamily=Verdana;fontSize=10;align=center;" vertex="1" parent="1">
          <mxGeometry x="390" y="774.5" width="112" height="70" as="geometry" />
        </mxCell>
        <mxCell id="-p2scP-3zSG3VPXRDZF1-42" value="Actor" style="shape=umlActor;verticalLabelPosition=bottom;verticalAlign=top;html=1;outlineConnect=0;" vertex="1" parent="1">
          <mxGeometry x="-1520" y="220" width="30" height="60" as="geometry" />
        </mxCell>
        <mxCell id="-p2scP-3zSG3VPXRDZF1-49" value="" style="edgeStyle=orthogonalEdgeStyle;rounded=0;orthogonalLoop=1;jettySize=auto;html=1;" edge="1" parent="1" source="-p2scP-3zSG3VPXRDZF1-44">
          <mxGeometry relative="1" as="geometry">
            <mxPoint x="-1370" y="334" as="targetPoint" />
          </mxGeometry>
        </mxCell>
        <mxCell id="-p2scP-3zSG3VPXRDZF1-44" value="" style="whiteSpace=wrap;html=1;aspect=fixed;opacity=0;" vertex="1" parent="1">
          <mxGeometry x="-1545" y="210" width="80" height="80" as="geometry" />
        </mxCell>
        <mxCell id="-p2scP-3zSG3VPXRDZF1-53" value="&lt;font style=&quot;font-size: 6px;&quot;&gt;Generate Laporan&lt;/font&gt;" style="shape=folder;fontStyle=1;spacingTop=10;tabWidth=50;tabHeight=17;tabPosition=left;html=1;rounded=0;shadow=0;comic=0;labelBackgroundColor=none;strokeWidth=1;fontFamily=Verdana;fontSize=10;align=center;" vertex="1" parent="1">
          <mxGeometry x="880" y="750" width="132" height="60" as="geometry" />
        </mxCell>
        <mxCell id="-p2scP-3zSG3VPXRDZF1-62" style="edgeStyle=orthogonalEdgeStyle;rounded=0;orthogonalLoop=1;jettySize=auto;html=1;exitX=0;exitY=0;exitDx=0;exitDy=38.5;exitPerimeter=0;entryX=0;entryY=0;entryDx=0;entryDy=70;entryPerimeter=0;endArrow=open;endFill=0;dashed=1;" edge="1" parent="1" source="-p2scP-3zSG3VPXRDZF1-56" target="6e0c8c40b5770093-43">
          <mxGeometry relative="1" as="geometry" />
        </mxCell>
        <mxCell id="-p2scP-3zSG3VPXRDZF1-56" value="&lt;span style=&quot;font-size: 6px;&quot;&gt;Tanggapi&amp;nbsp;&lt;br&gt;Laporan&lt;br&gt;&lt;/span&gt;" style="shape=folder;fontStyle=1;spacingTop=10;tabWidth=50;tabHeight=17;tabPosition=left;html=1;rounded=0;shadow=0;comic=0;labelBackgroundColor=none;strokeWidth=1;fontFamily=Verdana;fontSize=10;align=center;" vertex="1" parent="1">
          <mxGeometry x="580" y="750" width="110" height="60" as="geometry" />
        </mxCell>
        <mxCell id="-p2scP-3zSG3VPXRDZF1-65" value="" style="group;labelBackgroundColor=none;" vertex="1" connectable="0" parent="1">
          <mxGeometry x="990" y="180" width="130" height="70" as="geometry" />
        </mxCell>
        <mxCell id="-p2scP-3zSG3VPXRDZF1-66" value="Register" style="shape=folder;fontStyle=1;spacingTop=10;tabWidth=50;tabHeight=17;tabPosition=left;html=1;rounded=0;shadow=0;comic=0;labelBackgroundColor=none;strokeWidth=1;fontFamily=Verdana;fontSize=10;align=center;" vertex="1" parent="-p2scP-3zSG3VPXRDZF1-65">
          <mxGeometry width="130" height="70" as="geometry" />
        </mxCell>
        <mxCell id="-p2scP-3zSG3VPXRDZF1-67" value="" style="triangle;whiteSpace=wrap;html=1;rounded=0;shadow=0;comic=0;labelBackgroundColor=none;strokeWidth=1;fontFamily=Verdana;fontSize=10;align=center;rotation=-90;" vertex="1" parent="-p2scP-3zSG3VPXRDZF1-65">
          <mxGeometry x="100" y="25" width="15" height="20" as="geometry" />
        </mxCell>
        <mxCell id="-p2scP-3zSG3VPXRDZF1-68" style="edgeStyle=orthogonalEdgeStyle;rounded=0;orthogonalLoop=1;jettySize=auto;html=1;exitX=0;exitY=0;exitDx=130;exitDy=30.25;exitPerimeter=0;entryX=0;entryY=0;entryDx=0;entryDy=43.5;entryPerimeter=0;dashed=1;endArrow=open;endFill=0;" edge="1" parent="1" source="6e0c8c40b5770093-8" target="-p2scP-3zSG3VPXRDZF1-66">
          <mxGeometry relative="1" as="geometry" />
        </mxCell>
        <mxCell id="-p2scP-3zSG3VPXRDZF1-69" value="Belum punya akun" style="text;html=1;strokeColor=none;fillColor=none;align=center;verticalAlign=middle;whiteSpace=wrap;rounded=0;" vertex="1" parent="1">
          <mxGeometry x="895.5" y="160" width="60" height="30" as="geometry" />
        </mxCell>
        <mxCell id="-p2scP-3zSG3VPXRDZF1-70" style="edgeStyle=orthogonalEdgeStyle;rounded=0;orthogonalLoop=1;jettySize=auto;html=1;exitX=0.25;exitY=1;exitDx=0;exitDy=0;exitPerimeter=0;entryX=0.75;entryY=1;entryDx=0;entryDy=0;entryPerimeter=0;dashed=1;" edge="1" parent="1" source="-p2scP-3zSG3VPXRDZF1-66" target="6e0c8c40b5770093-8">
          <mxGeometry relative="1" as="geometry" />
        </mxCell>
        <mxCell id="-p2scP-3zSG3VPXRDZF1-71" value="" style="shape=folder;fontStyle=1;spacingTop=10;tabWidth=123;tabHeight=24;tabPosition=left;html=1;rounded=0;shadow=0;comic=0;labelBackgroundColor=none;strokeWidth=1;fontFamily=Verdana;fontSize=10;align=center;" vertex="1" parent="1">
          <mxGeometry x="-320" y="471.5" width="640" height="555.5" as="geometry" />
        </mxCell>
        <mxCell id="-p2scP-3zSG3VPXRDZF1-73" value="Hal Petugas" style="text;html=1;strokeColor=none;fillColor=none;align=center;verticalAlign=middle;whiteSpace=wrap;rounded=0;" vertex="1" parent="1">
          <mxGeometry x="-300" y="470" width="70" height="30" as="geometry" />
        </mxCell>
        <mxCell id="-p2scP-3zSG3VPXRDZF1-74" value="&lt;font style=&quot;font-size: 6px;&quot;&gt;Approve Pengaduan&lt;br&gt;&lt;br&gt;&lt;/font&gt;" style="shape=folder;fontStyle=1;spacingTop=10;tabWidth=50;tabHeight=17;tabPosition=left;html=1;rounded=0;shadow=0;comic=0;labelBackgroundColor=none;strokeWidth=1;fontFamily=Verdana;fontSize=10;align=center;" vertex="1" parent="1">
          <mxGeometry x="720" y="750" width="132" height="60" as="geometry" />
        </mxCell>
        <mxCell id="-p2scP-3zSG3VPXRDZF1-87" style="edgeStyle=elbowEdgeStyle;rounded=0;html=1;dashed=1;labelBackgroundColor=none;startFill=0;endArrow=open;endFill=0;endSize=10;fontFamily=Verdana;fontSize=10;fontColor=default;" edge="1" parent="1" source="-p2scP-3zSG3VPXRDZF1-91" target="-p2scP-3zSG3VPXRDZF1-93">
          <mxGeometry relative="1" as="geometry" />
        </mxCell>
        <mxCell id="-p2scP-3zSG3VPXRDZF1-88" style="edgeStyle=none;rounded=0;html=1;dashed=1;labelBackgroundColor=none;startFill=0;endArrow=open;endFill=0;endSize=10;fontFamily=Verdana;fontSize=10;entryX=-0.003;entryY=0.411;entryPerimeter=0;fontColor=default;" edge="1" parent="1" source="-p2scP-3zSG3VPXRDZF1-91" target="-p2scP-3zSG3VPXRDZF1-94">
          <mxGeometry relative="1" as="geometry" />
        </mxCell>
        <mxCell id="-p2scP-3zSG3VPXRDZF1-89" style="edgeStyle=orthogonalEdgeStyle;rounded=0;orthogonalLoop=1;jettySize=auto;html=1;exitX=0;exitY=0;exitDx=0;exitDy=70;exitPerimeter=0;entryX=0;entryY=0;entryDx=25;entryDy=0;entryPerimeter=0;dashed=1;endArrow=open;endFill=0;" edge="1" parent="1" source="-p2scP-3zSG3VPXRDZF1-91" target="-p2scP-3zSG3VPXRDZF1-92">
          <mxGeometry relative="1" as="geometry" />
        </mxCell>
        <mxCell id="-p2scP-3zSG3VPXRDZF1-91" value="Dashboard&lt;br&gt;" style="shape=folder;fontStyle=1;spacingTop=10;tabWidth=50;tabHeight=17;tabPosition=left;html=1;rounded=0;shadow=0;comic=0;labelBackgroundColor=none;strokeWidth=1;fontFamily=Verdana;fontSize=10;align=center;" vertex="1" parent="1">
          <mxGeometry x="-50" y="534.5" width="112" height="70" as="geometry" />
        </mxCell>
        <mxCell id="-p2scP-3zSG3VPXRDZF1-92" value="&lt;font style=&quot;font-size: 8px;&quot;&gt;Halaman List Tanggapan&lt;/font&gt;" style="shape=folder;fontStyle=1;spacingTop=10;tabWidth=50;tabHeight=17;tabPosition=left;html=1;rounded=0;shadow=0;comic=0;labelBackgroundColor=none;strokeWidth=1;fontFamily=Verdana;fontSize=10;align=center;" vertex="1" parent="1">
          <mxGeometry x="-230" y="634.5" width="112" height="70" as="geometry" />
        </mxCell>
        <mxCell id="-p2scP-3zSG3VPXRDZF1-93" value="&lt;font style=&quot;font-size: 8px;&quot;&gt;Halaman list Pengaduan&lt;/font&gt;" style="shape=folder;fontStyle=1;spacingTop=10;tabWidth=50;tabHeight=17;tabPosition=left;html=1;rounded=0;shadow=0;comic=0;labelBackgroundColor=none;strokeWidth=1;fontFamily=Verdana;fontSize=10;align=center;" vertex="1" parent="1">
          <mxGeometry x="-40" y="634.5" width="112" height="70" as="geometry" />
        </mxCell>
        <mxCell id="-p2scP-3zSG3VPXRDZF1-94" value="Kalender" style="shape=folder;fontStyle=1;spacingTop=10;tabWidth=50;tabHeight=17;tabPosition=left;html=1;rounded=0;shadow=0;comic=0;labelBackgroundColor=none;strokeWidth=1;fontFamily=Verdana;fontSize=10;align=center;" vertex="1" parent="1">
          <mxGeometry x="145.5" y="634.5" width="112" height="70" as="geometry" />
        </mxCell>
        <mxCell id="-p2scP-3zSG3VPXRDZF1-97" style="edgeStyle=orthogonalEdgeStyle;rounded=0;orthogonalLoop=1;jettySize=auto;html=1;exitX=0;exitY=0;exitDx=112;exitDy=70;exitPerimeter=0;entryX=0.215;entryY=0;entryDx=0;entryDy=0;entryPerimeter=0;dashed=1;endArrow=open;endFill=0;" edge="1" parent="1" target="-p2scP-3zSG3VPXRDZF1-99" source="-p2scP-3zSG3VPXRDZF1-93">
          <mxGeometry relative="1" as="geometry">
            <mxPoint x="23" y="722.5" as="sourcePoint" />
          </mxGeometry>
        </mxCell>
        <mxCell id="-p2scP-3zSG3VPXRDZF1-98" style="edgeStyle=orthogonalEdgeStyle;rounded=0;orthogonalLoop=1;jettySize=auto;html=1;exitX=0.25;exitY=1;exitDx=0;exitDy=0;exitPerimeter=0;entryX=0;entryY=0;entryDx=25;entryDy=0;entryPerimeter=0;dashed=1;dashPattern=8 8;endArrow=openThin;endFill=0;" edge="1" parent="1" target="-p2scP-3zSG3VPXRDZF1-100" source="-p2scP-3zSG3VPXRDZF1-93">
          <mxGeometry relative="1" as="geometry">
            <mxPoint x="-33" y="722.5" as="sourcePoint" />
          </mxGeometry>
        </mxCell>
        <mxCell id="-p2scP-3zSG3VPXRDZF1-99" value="&lt;font style=&quot;font-size: 6px;&quot;&gt;Generate Laporan&lt;/font&gt;" style="shape=folder;fontStyle=1;spacingTop=10;tabWidth=50;tabHeight=17;tabPosition=left;html=1;rounded=0;shadow=0;comic=0;labelBackgroundColor=none;strokeWidth=1;fontFamily=Verdana;fontSize=10;align=center;" vertex="1" parent="1">
          <mxGeometry x="140" y="777.5" width="132" height="60" as="geometry" />
        </mxCell>
        <mxCell id="-p2scP-3zSG3VPXRDZF1-103" style="edgeStyle=orthogonalEdgeStyle;rounded=0;orthogonalLoop=1;jettySize=auto;html=1;exitX=0;exitY=0;exitDx=0;exitDy=38.5;exitPerimeter=0;entryX=0.5;entryY=1;entryDx=0;entryDy=0;entryPerimeter=0;" edge="1" parent="1" source="-p2scP-3zSG3VPXRDZF1-100" target="-p2scP-3zSG3VPXRDZF1-92">
          <mxGeometry relative="1" as="geometry" />
        </mxCell>
        <mxCell id="-p2scP-3zSG3VPXRDZF1-100" value="&lt;span style=&quot;font-size: 6px;&quot;&gt;Tanggapi&amp;nbsp;&lt;br&gt;Laporan&lt;br&gt;&lt;/span&gt;" style="shape=folder;fontStyle=1;spacingTop=10;tabWidth=50;tabHeight=17;tabPosition=left;html=1;rounded=0;shadow=0;comic=0;labelBackgroundColor=none;strokeWidth=1;fontFamily=Verdana;fontSize=10;align=center;" vertex="1" parent="1">
          <mxGeometry x="-70" y="774.5" width="110" height="60" as="geometry" />
        </mxCell>
        <mxCell id="-p2scP-3zSG3VPXRDZF1-102" style="edgeStyle=orthogonalEdgeStyle;rounded=0;orthogonalLoop=1;jettySize=auto;html=1;exitX=0.5;exitY=1;exitDx=0;exitDy=0;exitPerimeter=0;" edge="1" parent="1" source="-p2scP-3zSG3VPXRDZF1-100" target="-p2scP-3zSG3VPXRDZF1-100">
          <mxGeometry relative="1" as="geometry" />
        </mxCell>
      </root>
    </mxGraphModel>
  </diagram>
</mxfile>
